<svg width="2629" height="1268" viewBox="0 0 2629 1268" fill="none" xmlns="http://www.w3.org/2000/svg">
<g clip-path="url(#clip0_1667_19868)">
<mask id="mask0_1667_19868" style="mask-type:luminance" maskUnits="userSpaceOnUse" x="-948" y="-1495" width="4515" height="5184">
<path d="M-947.419 -1494.24H3566.83V3688.55H-947.419V-1494.24Z" fill="white"/>
</mask>
<g mask="url(#mask0_1667_19868)">
<path d="M1325.83 453.827C1325.83 453.827 1018.07 82.6101 561.768 25.1174C687.753 44.2522 981.608 124.241 1321.69 457.927L1326.01 463.441V453.641C1325.95 453.703 1325.89 453.765 1325.83 453.827Z" fill="white"/>
<path d="M496.233 19.1214C498.448 19.2458 500.635 19.4324 502.842 19.5723C519.863 20.088 536.898 21.6169 553.878 24.1954C556.505 24.5038 559.148 24.7862 561.767 25.1179C519.604 18.7146 496.233 19.1214 496.233 19.1214Z" fill="white"/>
<path d="M1164.3 620.78C1002.46 791.035 806.148 1005.4 576.743 990.461C379.535 977.623 243.092 797.223 254.73 561.567C265.456 344.398 427.75 164.907 628.982 178.007C862.411 193.203 1015.55 444.218 1164.3 620.78ZM1.94357 531.87C1.65241 536.257 1.39737 540.654 1.17843 545.06C-18.4473 942.442 208.883 1244.64 546.951 1266.65C872.947 1287.87 1099.03 1043 1315.93 820.709L850.164 205.644C766.298 98.5781 661.24 40.4998 553.878 24.1947C537.06 22.2175 520.05 20.66 502.842 19.5717C261.398 12.2717 23.3592 209.765 1.94357 531.87Z" fill="white"/>
<path d="M1302.66 814.113C1302.66 814.113 1610.42 1185.33 2066.72 1242.82C1940.74 1223.69 1646.88 1143.7 1306.8 810.013L1302.48 804.498V814.299C1302.54 814.237 1302.6 814.175 1302.66 814.113Z" fill="white"/>
<path d="M2132.26 1248.82C2130.04 1248.69 2127.86 1248.51 2125.65 1248.37C2108.63 1247.85 2091.59 1246.33 2074.61 1243.74C2071.98 1243.44 2069.34 1243.15 2066.72 1242.82C2108.89 1249.23 2132.26 1248.82 2132.26 1248.82Z" fill="white"/>
<path d="M1464.19 647.16C1626.03 476.905 1822.34 262.545 2051.75 277.479C2248.95 290.317 2385.4 470.717 2373.76 706.373C2363.03 923.543 2200.74 1103.04 1999.51 1089.93C1766.08 1074.74 1612.94 823.722 1464.19 647.16ZM2626.55 736.071C2626.84 731.683 2627.09 727.286 2627.31 722.88C2646.94 325.498 2419.61 23.2973 2081.54 1.28854C1755.54 -19.9324 1529.46 224.941 1312.56 447.231L1778.33 1062.3C1862.19 1169.36 1967.25 1227.44 2074.61 1243.75C2091.43 1245.72 2108.44 1247.28 2125.65 1248.37C2367.09 1255.67 2605.13 1058.18 2626.55 736.071Z" fill="white"/>
</g>
</g>
<defs>
<clipPath id="clip0_1667_19868">
<rect width="2628.49" height="1267.94" fill="white"/>
</clipPath>
</defs>
</svg>
