<?xml version="1.0" encoding="utf-8"?>
<svg xmlns="http://www.w3.org/2000/svg" viewBox="10.7895 617.5691 2628.4853 1267.9428" width="2628.49px" height="1267.94px" preserveAspectRatio="none"><defs><clipPath clipPathUnits="userSpaceOnUse" id="clipPath20"><path d="M 0,2000 H 2000 V 0 H 0 Z" id="path18"/></clipPath></defs><g id="g8" transform="matrix(2.25711989402771, 0, 0, -2.591400146484375, -936.6279907226562, 4306.1298828125)" style=""><g id="g14"><g id="g16" clip-path="url(#clipPath20)"><g id="g22" transform="translate(1007.1427,1248.2566)"><path d="m 0,0 c 0,0 -136.35,143.25 -338.51,165.436 55.817,-7.384 186.007,-38.251 336.678,-167.018 L 0.081,-3.71 V 0.072 C 0.054,0.048 0.027,0.024 0,0" style="fill:#24292F;fill-opacity:1;fill-rule:nonzero;stroke:none" id="path24"/></g><g id="g26" transform="translate(639.5983,1416.0065)"><path d="m 0,0 c 0.981,-0.048 1.95,-0.12 2.928,-0.174 7.541,-0.199 15.088,-0.789 22.611,-1.784 1.164,-0.119 2.335,-0.228 3.495,-0.356 C 10.354,0.157 0,0 0,0" style="fill:#24292F;fill-opacity:1;fill-rule:nonzero;stroke:none" id="path28"/></g><g id="g30" transform="translate(935.5793,1183.8307)"><path d="m 0,0 c -71.7,-65.7 -158.676,-148.42 -260.312,-142.657 -87.371,4.954 -147.821,74.569 -142.665,165.507 4.752,83.804 76.655,153.068 165.809,148.013 C -133.749,164.999 -65.9,68.134 0,0 m -514.972,34.31 c -0.129,-1.693 -0.242,-3.39 -0.339,-5.09 -8.695,-153.347 92.022,-269.964 241.8,-278.457 144.43,-8.189 244.596,86.306 340.689,172.086 l -206.353,237.349 c -37.156,41.316 -83.701,63.728 -131.267,70.02 -7.451,0.763 -14.987,1.364 -22.611,1.784 -106.97,2.817 -212.431,-73.394 -221.919,-197.692" style="fill:#24292F;fill-opacity:1;fill-rule:nonzero;stroke:none" id="path32"/></g><g id="g34" transform="translate(996.8805,1109.2252)"><path d="M 0,0 C 0,0 136.35,-143.25 338.51,-165.436 282.693,-158.052 152.503,-127.185 1.832,1.582 L -0.081,3.71 V -0.072 C -0.054,-0.048 -0.027,-0.024 0,0" style="fill:#24292F;fill-opacity:1;fill-rule:nonzero;stroke:none" id="path36"/></g><g id="g38" transform="translate(1364.4249,941.4753)"><path d="m 0,0 c -0.981,0.048 -1.95,0.12 -2.928,0.174 -7.541,0.199 -15.088,0.788 -22.611,1.784 -1.164,0.119 -2.335,0.228 -3.495,0.356 C -10.354,-0.158 0,0 0,0" style="fill:#24292F;fill-opacity:1;fill-rule:nonzero;stroke:none" id="path40"/></g><g id="g42" transform="translate(1068.4438,1173.6511)"><path d="M 0,0 C 71.7,65.7 158.676,148.42 260.312,142.657 347.683,137.703 408.133,68.088 402.977,-22.85 398.224,-106.654 326.322,-175.919 237.168,-170.863 133.749,-164.999 65.9,-68.134 0,0 m 514.972,-34.31 c 0.129,1.693 0.242,3.39 0.339,5.09 C 524.006,124.127 423.289,240.744 273.51,249.237 129.081,257.426 28.915,162.931 -67.178,77.151 l 206.353,-237.349 c 37.156,-41.316 83.701,-63.728 131.267,-70.02 7.451,-0.763 14.987,-1.364 22.611,-1.784 106.97,-2.817 212.431,73.394 221.919,197.692" style="fill:#24292F;fill-opacity:1;fill-rule:nonzero;stroke:none" id="path44"/></g></g></g></g></svg>